<svg width="90" height="32" viewBox="0 0 90 32" fill="none" xmlns="http://www.w3.org/2000/svg"><path fill-rule="evenodd" clip-rule="evenodd" d="M50.0561 4.53789H51.1833L50.7475 3.0722H50.4918L50.0561 4.53789ZM51.4155 5.30618H49.8354L49.4985 6.44683H48.6445L49.9633 2.22705H51.3052L52.6299 6.44683H51.7525L51.4155 5.30618Z" fill="#fff"/><path fill-rule="evenodd" clip-rule="evenodd" d="M54.0981 3.01308V6.44683H53.2161V2.22705H56.2638V3.01308H54.0981Z" fill="#fff"/><path fill-rule="evenodd" clip-rule="evenodd" d="M60.132 5.6608V6.44683H56.9672V2.22705H60.0672V3.01308H57.8419V3.8996H59.5741V4.66792H57.8419V5.6608H60.132Z" fill="#fff"/><path fill-rule="evenodd" clip-rule="evenodd" d="M64.5862 2.22705V6.44683H63.7042V4.67971H61.8342V6.44683H60.9525V2.22705H61.8342V3.87006H63.7042V2.22705H64.5862Z" fill="#fff"/><path fill-rule="evenodd" clip-rule="evenodd" d="M68.5715 3.00129H67.255V6.44683H66.3715V3.00129H65.055V2.22705H68.5715V3.00129Z" fill="#fff"/><path fill-rule="evenodd" clip-rule="evenodd" d="M72.6741 5.15159C72.5451 5.98383 71.9062 6.56405 70.9274 6.56405C69.65 6.56405 68.9232 5.67319 68.9232 4.39553C68.9232 3.11788 69.6557 2.22705 70.9274 2.22705C71.8592 2.22705 72.4864 2.75452 72.6331 3.5223H71.7186C71.6189 3.18823 71.3437 3.00653 70.9274 3.00653C70.1772 3.00653 69.82 3.61605 69.82 4.39553C69.82 5.16918 70.1772 5.78456 70.9274 5.78456C71.3787 5.78456 71.6836 5.55011 71.7656 5.15159H72.6741Z" fill="#fff"/><path fill-rule="evenodd" clip-rule="evenodd" d="M76.5422 3.00129H75.2258V6.44683H74.3421V3.00129H73.0257V2.22705H76.5422V3.00129Z" fill="#fff"/><path fill-rule="evenodd" clip-rule="evenodd" d="M79.733 5.17616C79.733 4.82157 79.5124 4.63834 79.0595 4.63834H78.0163V5.69626H79.0473C79.4886 5.69626 79.733 5.53078 79.733 5.17616ZM79.6137 3.42678C79.6137 3.11357 79.411 2.95992 79.0117 2.95992H78.0163V3.8996H79.0175C79.4171 3.8996 79.6137 3.74595 79.6137 3.42678ZM80.6447 5.22344C80.6447 5.92673 80.1858 6.44683 79.1785 6.44683H77.1283V2.22705H79.125C80.0669 2.22705 80.5258 2.74124 80.5258 3.34408C80.5258 3.7282 80.3529 4.05916 80.0787 4.1951V4.3133C80.3828 4.43741 80.6447 4.80386 80.6447 5.22344Z" fill="#fff"/><path fill-rule="evenodd" clip-rule="evenodd" d="M84.4314 4.39553C84.4314 3.62195 84.0717 3.00653 83.2821 3.00653C82.4981 3.00653 82.1327 3.62195 82.1327 4.39553C82.1327 5.16918 82.4981 5.78456 83.2821 5.78456C84.0717 5.78456 84.4314 5.16918 84.4314 4.39553ZM85.3333 4.39553C85.3333 5.62633 84.614 6.56405 83.2821 6.56405C81.9497 6.56405 81.2308 5.62633 81.2308 4.39553C81.2308 3.16477 81.9497 2.22705 83.2821 2.22705C84.614 2.22705 85.3333 3.16477 85.3333 4.39553Z" fill="#fff"/><path fill-rule="evenodd" clip-rule="evenodd" d="M49.807 9.96313V12.9122H49.9237L51.4928 9.96313H52.6301V14.1829H51.8135V11.1688H51.6968L50.0929 14.1829H48.9964V9.96313H49.807Z" fill="#fff"/><path fill-rule="evenodd" clip-rule="evenodd" d="M57.3186 9.96313V14.1829H56.4369V12.4158H54.5669V14.1829H53.6849V9.96313H54.5669V11.6061H56.4369V9.96313H57.3186Z" fill="#fff"/><path fill-rule="evenodd" clip-rule="evenodd" d="M61.8902 9.96313V14.1829H61.0085V12.4158H59.1383V14.1829H58.2565V9.96313H59.1383V11.6061H61.0085V9.96313H61.8902Z" fill="#fff"/><path fill-rule="evenodd" clip-rule="evenodd" d="M65.794 12.1316C65.794 11.358 65.4344 10.7426 64.6447 10.7426C63.8607 10.7426 63.4954 11.358 63.4954 12.1316C63.4954 12.9053 63.8607 13.5206 64.6447 13.5206C65.4344 13.5206 65.794 12.9053 65.794 12.1316ZM66.696 12.1316C66.696 13.3624 65.9767 14.3001 64.6447 14.3001C63.3124 14.3001 62.5934 13.3624 62.5934 12.1316C62.5934 10.9009 63.3124 9.96313 64.6447 9.96313C65.9767 9.96313 66.696 10.9009 66.696 12.1316Z" fill="#fff"/><path fill-rule="evenodd" clip-rule="evenodd" d="M70.1213 12.9122C70.1213 12.5577 69.9007 12.3744 69.4479 12.3744H68.4046V13.4323H69.4357C69.877 13.4323 70.1213 13.2669 70.1213 12.9122ZM70.002 11.1629C70.002 10.8497 69.7993 10.696 69.4001 10.696H68.4046V11.6357H69.4058C69.8055 11.6357 70.002 11.482 70.002 11.1629ZM71.0331 12.9595C71.0331 13.6628 70.5742 14.1829 69.5668 14.1829H67.5166V9.96313H69.5133C70.4552 9.96313 70.9141 10.4773 70.9141 11.0802C70.9141 11.4643 70.7413 11.7952 70.4671 11.9312V12.0494C70.7711 12.1735 71.0331 12.5399 71.0331 12.9595Z" fill="#fff"/><path fill-rule="evenodd" clip-rule="evenodd" d="M72.7964 12.274H73.9235L73.4878 10.8083H73.2321L72.7964 12.274ZM74.1557 13.0423H72.5757L72.2387 14.1829H71.3848L72.7035 9.96313H74.0454L75.3701 14.1829H74.4927L74.1557 13.0423Z" fill="#fff"/><path fill-rule="evenodd" clip-rule="evenodd" d="M79.2136 14.1995H75.9561V9.96313H76.8243V13.4104H78.5959V9.96313H79.4641V13.4104H80.0586V15.2379H79.2136V14.1995Z" fill="#fff"/><path fill-rule="evenodd" clip-rule="evenodd" d="M81.5726 9.96313V12.9122H81.6893L83.2581 9.96313H84.3957V14.1829H83.5788V11.1688H83.4624L81.8585 14.1829H80.762V9.96313H81.5726Z" fill="#fff"/><path fill-rule="evenodd" clip-rule="evenodd" d="M88.3669 8.9082C88.3201 9.4625 87.9238 9.80677 87.2644 9.80677C86.6054 9.80677 86.2087 9.4625 86.1623 8.9082H86.8037C86.827 9.10658 86.9789 9.26993 87.2644 9.26993C87.5444 9.26993 87.6962 9.11239 87.7254 8.9082H88.3669ZM86.2615 10.0168V12.9284H86.3779L87.947 10.0168H89.0843V14.1829H88.2677V11.2071H88.151L86.547 14.1829H85.4506V10.0168H86.2615Z" fill="#fff"/><path fill-rule="evenodd" clip-rule="evenodd" d="M49.878 18.6029V22.0367H48.9964V17.8169H52.044V18.6029H49.878Z" fill="#fff"/><path fill-rule="evenodd" clip-rule="evenodd" d="M55.5961 19.8682C55.5961 19.0946 55.2365 18.4792 54.4468 18.4792C53.6628 18.4792 53.2975 19.0946 53.2975 19.8682C53.2975 20.6418 53.6628 21.2572 54.4468 21.2572C55.2365 21.2572 55.5961 20.6418 55.5961 19.8682ZM56.4981 19.8682C56.4981 21.099 55.7788 22.0367 54.4468 22.0367C53.1145 22.0367 52.3955 21.099 52.3955 19.8682C52.3955 18.6374 53.1145 17.6997 54.4468 17.6997C55.7788 17.6997 56.4981 18.6374 56.4981 19.8682Z" fill="#fff"/><path fill-rule="evenodd" clip-rule="evenodd" d="M59.8273 19.1703C59.8273 18.798 59.6297 18.5911 59.0941 18.5911H58.1859V19.7495H59.0941C59.6297 19.7495 59.8273 19.5367 59.8273 19.1703ZM60.718 19.1585C60.718 20.0095 60.1649 20.5237 59.2163 20.5237H58.1859V22.0367H57.3187V17.8169H59.2163C60.1649 17.8169 60.718 18.3193 60.718 19.1585Z" fill="#fff"/><path fill-rule="evenodd" clip-rule="evenodd" d="M64.5046 19.8682C64.5046 19.0946 64.145 18.4792 63.3553 18.4792C62.5713 18.4792 62.206 19.0946 62.206 19.8682C62.206 20.6418 62.5713 21.2572 63.3553 21.2572C64.145 21.2572 64.5046 20.6418 64.5046 19.8682ZM65.4066 19.8682C65.4066 21.099 64.6873 22.0367 63.3553 22.0367C62.023 22.0367 61.304 21.099 61.304 19.8682C61.304 18.6374 62.023 17.6997 63.3553 17.6997C64.6873 17.6997 65.4066 18.6374 65.4066 19.8682Z" fill="#fff"/><path fill-rule="evenodd" clip-rule="evenodd" d="M68.7627 18.4888H67.5012V18.8626C67.5012 19.9306 67.319 20.6901 67.0784 21.147H68.7627V18.4888ZM70.2124 21.147V22.9744H69.3614V21.9361H66.6091V22.9744H65.7581V21.147H66.1923C66.474 20.6367 66.6912 19.8654 66.6912 18.6312V17.6997H69.6137V21.147H70.2124Z" fill="#fff"/><path fill-rule="evenodd" clip-rule="evenodd" d="M71.8585 20.1277H72.9857L72.5499 18.662H72.2942L71.8585 20.1277ZM73.2179 20.896H71.6378L71.3009 22.0367H70.4469L71.7657 17.8169H73.1076L74.4323 22.0367H73.5549L73.2179 20.896Z" fill="#fff"/><path fill-rule="evenodd" clip-rule="evenodd" d="M48.9964 25.553H50.3733L51.0589 27.2373H51.1772L51.8628 25.553H53.2162V29.7728H52.3948V26.4808H52.2765L51.5082 28.3603H50.7043L49.9361 26.4808H49.8178V29.7728H48.9964V25.553Z" fill="#fff"/><path fill-rule="evenodd" clip-rule="evenodd" d="M57.1199 27.6043C57.1199 26.8307 56.7602 26.2153 55.9706 26.2153C55.1866 26.2153 54.8209 26.8307 54.8209 27.6043C54.8209 28.3779 55.1866 28.9933 55.9706 28.9933C56.7602 28.9933 57.1199 28.3779 57.1199 27.6043ZM58.0218 27.6043C58.0218 28.8351 57.3026 29.7728 55.9706 29.7728C54.6382 29.7728 53.9193 28.8351 53.9193 27.6043C53.9193 26.3735 54.6382 25.4358 55.9706 25.4358C57.3026 25.4358 58.0218 26.3735 58.0218 27.6043Z" fill="#fff"/><path fill-rule="evenodd" clip-rule="evenodd" d="M62.359 28.3603C62.23 29.1926 61.5911 29.7728 60.6123 29.7728C59.3349 29.7728 58.6081 28.882 58.6081 27.6043C58.6081 26.3266 59.3406 25.4358 60.6123 25.4358C61.5441 25.4358 62.1713 25.9633 62.318 26.731H61.4035C61.3039 26.3969 61.0286 26.2153 60.6123 26.2153C59.8621 26.2153 59.5046 26.8248 59.5046 27.6043C59.5046 28.3779 59.8621 28.9933 60.6123 28.9933C61.0636 28.9933 61.3685 28.7589 61.4505 28.3603H62.359Z" fill="#fff"/><path fill-rule="evenodd" clip-rule="evenodd" d="M63.1794 25.553H64.0642V27.2019H65.0436L65.8455 25.553H66.7597L65.786 27.6038L66.8131 29.7728H65.8988L65.0497 27.9997H64.0642V29.7728H63.1794V25.553Z" fill="#fff"/><path fill-rule="evenodd" clip-rule="evenodd" d="M70.0042 28.5021C70.0042 28.1475 69.7835 27.9643 69.3307 27.9643H68.2874V29.0222H69.3185C69.7598 29.0222 70.0042 28.8567 70.0042 28.5021ZM69.8848 26.7527C69.8848 26.4395 69.6822 26.2858 69.2829 26.2858H68.2874V27.2255H69.2887C69.6883 27.2255 69.8848 27.0719 69.8848 26.7527ZM70.9159 28.5494C70.9159 29.2527 70.457 29.7728 69.4497 29.7728H67.3994V25.553H69.3961C70.338 25.553 70.7969 26.0672 70.7969 26.67C70.7969 27.0541 70.6241 27.3851 70.3499 27.521V27.6392C70.6539 27.7633 70.9159 28.1298 70.9159 28.5494Z" fill="#fff"/><path fill-rule="evenodd" clip-rule="evenodd" d="M75.4247 29.7728H76.3078V25.553H75.4247V29.7728ZM74.0494 28.378C74.0494 27.982 73.8361 27.7574 73.2492 27.7574H72.5023V28.9986H73.2492C73.8361 28.9986 74.0494 28.7799 74.0494 28.378ZM71.6191 29.7728V25.553H72.5023V26.9832H73.3854C74.3754 26.9832 74.9565 27.5092 74.9565 28.3721C74.9565 29.2468 74.3754 29.7728 73.3854 29.7728H71.6191Z" fill="#fff"/><path fill-rule="evenodd" clip-rule="evenodd" d="M8.27153 28.4406C8.0562 28.7083 7.72617 28.798 7.53184 28.6418C7.36042 28.5044 7.3555 28.2195 7.50455 27.971C7.38115 28.0024 7.27197 28.07 7.19963 28.1746C7.01514 28.4406 7.12268 28.8371 7.44121 29.0597C7.75974 29.2832 8.16863 29.2477 8.35339 28.9826C8.48278 28.798 8.46696 28.55 8.33925 28.3412C8.31959 28.375 8.29721 28.4084 8.27153 28.4406ZM19.1841 9.56791C18.8001 9.19934 18.9128 8.47272 18.9128 8.47272C18.7509 8.60838 18.5451 9.55779 18.8871 10.0392C19.283 10.5975 19.6386 10.6742 19.9522 11.2818C19.9904 11.1953 19.9413 10.9783 19.86 10.8157C19.7369 10.5685 19.6888 10.3629 19.9795 10.279C20.8017 10.04 21.5656 11.226 22.014 11.206C22.6421 11.1789 22.7833 10.6156 22.8095 10.5877C22.8362 10.5606 22.4795 10.832 22.0741 10.7834C21.4341 10.7062 21.1379 9.98588 20.4176 9.83913C19.9582 9.74613 19.5687 9.93719 19.1841 9.56791ZM18.7461 22.7849C18.5326 23.0977 18.6953 23.5394 19.2617 23.7055C19.7718 23.8541 20.1094 24.0096 20.3586 24.2609C20.7255 24.6281 20.8966 24.6741 20.9851 24.6709L5.32039 2.92777L5.11265 3.07932C5.11265 3.07932 14.152 15.6273 18.1726 21.2103C18.3227 21.4178 18.9347 22.5062 18.7461 22.7849ZM18.6849 23.7754C18.0896 23.7901 17.4056 24.0031 16.7175 23.3656C15.826 22.5399 14.8963 23.0676 14.8963 23.0676C14.8963 23.0676 15.4832 23.654 15.1565 23.8955C14.6239 24.2896 15.0162 24.7514 14.9684 24.9321C14.9209 25.112 14.3851 25.1489 13.4882 24.739C12.9786 24.504 12.5121 24.5119 12.2047 24.5608C11.973 24.5999 12.0494 24.7678 12.1016 24.8159C12.1016 24.8159 12.4788 25.1618 12.6259 25.2577C12.7439 25.3326 13.0449 25.5822 13.1574 25.501C13.2665 25.4229 13.0282 24.9807 13.0282 24.9807C13.0282 24.9807 14.7954 25.5718 15.413 25.5718C16.1314 25.5718 15.4584 24.3752 16.0239 24.3186C16.3088 24.2896 16.6645 24.7347 17.2516 24.8186C17.6602 24.8783 18.0547 24.7034 18.4562 24.6027C18.8839 24.496 19.046 25.0272 19.1061 25.4947C19.1164 25.5707 19.1317 25.7639 19.2136 25.9057C19.3547 25.2319 19.543 23.7546 18.6849 23.7754ZM23.1588 25.1588C22.9258 24.531 22.4811 24.8017 22.2824 24.7322C22.0834 24.6631 21.8257 24.4141 21.7419 23.7473C21.659 23.0791 21.0926 23.44 21.0926 23.44C21.0926 23.44 21.7474 24.7562 22.0119 25.4577C22.2769 26.1577 22.4991 25.615 22.8215 25.9993C23.1463 26.3835 23.1086 28.3576 22.9252 28.993C22.6798 29.835 22.1893 30.4277 21.689 30.8279C22.1451 30.7748 22.9951 29.8798 23.2339 29.2925C23.5085 28.6182 23.3513 27.9966 23.3513 27.9966L23.7348 27.9622L23.5009 27.3502L23.8707 27.2944C23.8707 27.2944 23.3906 25.7855 23.1588 25.1588ZM7.92899 26.4081C7.45977 26.2796 6.95507 26.2558 6.45476 26.3223C5.93755 26.3994 5.52181 26.5464 5.08864 26.524C4.65875 26.5138 4.25562 26.3441 3.99303 26.0333C3.87512 25.8964 3.78914 25.736 3.72744 25.5655C3.93515 25.135 4.33885 24.6995 5.05918 24.2984C7.57551 22.8973 6.74356 21.317 6.58635 19.4869C6.50719 18.5569 6.6955 17.7102 7.17238 17.2813C7.84599 16.6728 8.97821 16.7479 8.97821 16.7479C8.84883 16.5823 7.33206 16.0382 6.17445 16.3756C4.93414 16.7367 4.7046 17.6357 4.49168 18.2747C4.30748 18.8286 4.06671 19.4814 2.96999 19.9418C1.12647 20.7163 1.25097 22.1685 1.25097 22.1685C1.25097 22.1685 0.582477 20.7341 2.3744 19.5214C4.64949 17.9822 3.77386 16.7996 4.53428 16.0937C5.1285 15.5439 5.83927 15.6315 6.92397 15.9289C6.72881 15.6982 3.84643 14.4874 3.51181 17.0593C3.22766 19.2452 1.14232 18.9404 0.78122 20.9974C0.526831 22.457 1.90579 23.6792 1.90579 23.6792C1.90579 23.6792 0.804127 21.4697 2.9711 20.5761C4.47044 19.9596 5.32474 19.2466 5.54749 18.5435C5.53495 18.7682 5.53656 19.0074 5.54311 19.2685C5.56712 20.2576 6.03691 21.0308 5.89224 22.4219C5.81198 23.1877 4.41583 23.9518 3.63571 24.7376C3.66303 24.3851 3.75747 24.0425 3.93354 23.7595C4.13058 23.4581 4.45295 23.1352 4.59324 22.778C4.75429 22.4263 4.77613 22.0527 4.72426 21.7494C4.68166 21.5029 4.59488 21.308 4.50318 21.1425C4.46824 21.1567 4.4355 21.1701 4.40273 21.1808C4.56047 21.5515 4.64839 22.1133 4.34373 22.6601C4.19231 22.9734 3.92425 23.1948 3.63845 23.5619C3.37808 23.9248 3.1982 24.3829 3.17469 24.8802C3.16763 25.0381 3.18292 25.2006 3.2102 25.3627C2.89194 26.1989 3.25441 27.2777 3.54565 27.7772C3.89368 28.3711 4.22067 28.8067 4.05089 29.4971C3.87947 30.1875 4.47914 29.9482 4.90361 29.9553C5.03734 29.9569 5.17653 29.958 5.30293 29.958C5.58187 29.9569 5.69651 29.7546 5.52619 29.4802C5.23003 29.0062 4.75864 28.3053 4.3831 28.0057C4.04761 27.7369 3.50088 27.0314 3.55111 26.2145C4.04597 26.8034 4.602 26.9887 5.06242 27.0303C5.60264 27.0781 6.11222 26.8745 6.52793 26.8091C6.96384 26.7399 7.41008 26.7511 7.81542 26.8502C8.21913 26.9504 8.58541 27.1367 8.86796 27.3833C9.15505 27.63 9.3131 27.9564 9.39717 28.2717C9.55277 28.8929 9.12666 29.4753 8.78168 29.7813C8.80245 29.8043 8.82917 29.8273 8.85318 29.8486C9.45616 29.4857 9.78071 28.8513 9.66303 28.0943C9.54729 27.3505 8.87448 26.6369 7.92899 26.4081ZM7.43687 14.7709C8.17682 15.5529 8.97166 15.2389 9.32677 15.2812C9.68242 15.3228 10.0913 16.2348 9.87511 17.1181C9.65921 18.0014 9.57351 17.8494 9.42666 18.4036C9.2416 19.1018 10.1049 19.6026 9.90461 20.2461C9.84946 20.426 9.72499 20.6827 9.87511 20.8827C10.1088 21.1966 10.4874 20.7836 10.9642 20.8529C11.3379 20.9071 11.6678 20.7809 11.83 20.6827C11.7732 20.4101 10.6962 20.5775 10.4546 20.1361C10.3487 19.9412 10.0662 17.9324 10.6913 17.0347C11.2658 16.2114 10.7327 15.9544 10.3394 15.2894C10.878 14.9924 12.1441 14.3627 12.1441 14.3627C12.5585 14.8414 12.8519 15.254 13.1044 15.8307C13.2376 16.1173 13.3293 16.4251 13.3189 16.7348C13.3277 17.0492 13.2103 17.3581 13.0119 17.6389C13.2742 17.5985 13.5149 17.1277 13.5872 16.7657C13.6566 16.4019 13.6042 16.0287 13.5056 15.6823C13.1399 14.5622 12.2894 13.7602 12.2894 13.7602C12.2894 13.7602 11.1386 14.1555 10.0705 14.7359C9.73372 14.1035 9.39499 14.2157 8.97494 14.2515C8.55816 14.2873 8.30537 13.8465 8.30537 13.8465C8.62909 13.9494 9.07917 13.9672 9.68242 13.7288C11.0352 13.1938 10.5212 12.0751 10.5212 12.0751C10.5212 12.0751 10.5496 12.8875 9.74028 13.0019C9.23725 13.0724 7.91752 12.7449 7.91752 12.7449C7.91752 12.7449 8.97494 12.6218 9.1903 12.0119C9.48345 11.1773 10.323 11.5051 10.323 11.5051C10.323 11.5051 9.87511 10.9775 9.18428 11.3908C8.76365 11.6447 8.0649 11.7254 7.20783 11.2916C6.35159 10.8575 6.04125 11.577 5.8682 11.5948C5.69544 11.6145 5.5606 11.331 5.65775 11.0357C5.75546 10.7396 6.73864 10.4605 8.21859 10.4035C9.19575 10.366 9.67533 10.5584 9.88822 10.6942C9.89043 10.6134 9.62701 10.2511 8.82154 10.0529C8.01684 9.85418 8.06928 9.52445 8.10693 8.95577C8.14462 8.38693 7.31949 8.61495 7.11887 8.54303C6.91852 8.47134 7.10469 8.02549 7.10469 8.02549C6.81589 8.10837 6.59561 8.34239 6.60708 8.69018C6.6131 8.92226 6.83556 9.08952 7.0572 9.1988C7.27852 9.30876 7.31457 9.50833 6.91688 9.74014C6.59454 9.92817 6.13295 10.1715 5.51415 10.4372C4.1366 11.0283 5.85619 12.0469 5.25133 12.3585C4.64457 12.6702 4.49663 13.0783 4.46279 13.301C4.38744 13.8067 4.7248 14.1825 4.7248 14.1825C5.90859 13.5394 6.69771 13.9901 7.43687 14.7709ZM14.4463 12.9641C14.4463 12.4581 14.5759 12.2142 14.7156 12.2079C15.1423 12.1899 15.2334 12.7955 15.2395 12.9592C15.2569 13.4414 14.9018 13.6716 14.9018 13.6716C15.2061 13.6976 15.4463 13.2758 15.4865 13.0065C15.5443 12.6095 15.4731 12.4726 15.3333 12.2079C15.3333 12.2079 16.2259 13.0719 16.1304 14.0304C16.0222 15.1164 14.7986 15.6862 14.7986 15.6862C15.1614 15.816 16.21 15.7111 16.8802 14.8556C17.2506 14.3826 17.4127 13.6645 16.9634 12.5317C16.5564 11.5029 15.7801 10.632 16.6056 8.65955C17.4094 6.73713 19.5376 6.48588 20.8175 7.39924C20.9004 7.45829 20.9485 7.5293 20.9769 7.60424C21.0604 7.83196 20.4624 8.12915 20.7238 8.26685C20.9042 8.36152 21.1401 8.38612 21.3434 8.54165C21.5302 8.68304 21.5678 8.80409 21.6622 8.89216C21.7332 8.95852 21.7651 8.97189 21.835 8.97189C21.2558 8.29286 21.1603 7.51968 21.0658 6.70211C20.6114 6.58478 19.8899 6.21524 19.1776 6.13206C18.7313 6.07984 17.6499 6.00886 16.5657 6.54239C15.3448 7.14307 14.0521 8.31145 14.0521 11.0201C14.0521 12.1871 14.4463 13.0308 14.4463 12.9641ZM0.852182 19.2701C1.48105 19.0988 1.48105 18.6319 1.48978 18.5347C1.59023 18.6681 1.62518 18.815 1.62846 19.0047C1.90629 18.6425 1.83917 18.0142 1.15867 17.6386C1.15867 17.6386 1.19746 18.4636 0.669325 18.7551C0.119849 19.0569 0.0335697 19.2507 0.00303764 19.5493C-0.0100714 19.6958 0.0188554 19.8478 0.0974762 19.9656C0.168439 20.0841 0.290166 20.1671 0.403733 20.1952C0.237763 19.9727 0.205559 19.4462 0.852182 19.2701ZM14.0177 7.73664C12.475 7.82485 11.9364 7.27119 10.8818 6.76256C9.82435 6.2527 8.91598 6.62526 8.75656 6.86528C9.24815 6.89564 9.80579 7.09109 10.8637 7.75618C12.9999 9.09937 14.0177 7.73664 14.0177 7.73664ZM13.3261 4.45957C13.1022 4.51892 12.5596 4.60713 12.8126 5.86087C13.0673 7.11515 13.7428 6.81112 13.9252 6.6504C13.9252 6.6504 13.0064 6.55469 12.9797 5.4678C12.9535 4.37914 14.2082 4.57938 14.2082 4.57938C14.1329 4.4954 13.6811 4.36493 13.3261 4.45957ZM27.0713 20.3978C26.7672 19.3156 25.7994 17.1102 25.1372 16.1036C24.472 15.0962 24.1311 15.8184 23.8669 16.0462C23.6013 16.2738 22.8226 17.5848 22.4817 15.8947C22.1397 14.2039 20.3963 12.7397 20.3963 12.7397C20.7561 14.0126 20.6605 14.9442 20.5661 15.7621C20.4727 16.5776 20.6802 16.8636 20.6802 17.3565C20.6802 17.8513 19.2027 18.1744 19.1246 18.5539C19.0493 18.9338 21.3249 20.4938 23.491 18.93C24.1426 18.4598 24.5479 20.2839 24.7561 20.7776C24.9658 21.2724 24.5479 21.4241 25.0406 21.9944C25.5344 22.564 25.1547 23.0441 25.1547 23.4003C25.1547 23.7334 26.1327 24.5701 26.3117 24.3878C26.627 24.0737 25.9135 22.2027 25.629 21.5576C25.3438 20.9109 24.8893 18.8207 24.5681 18.2507C24.383 17.9249 23.4315 18.1562 23.4315 18.1562L23.3644 17.903C23.3644 17.903 23.4965 17.7337 23.6188 17.6053C24.6063 16.5787 24.5298 16.9964 25.5534 18.2507C26.5765 19.5042 25.3438 19.999 26.2347 20.6452C27.1267 21.2908 27.3735 21.4812 27.0713 20.3978ZM10.8342 3.58563C10.8342 3.58563 11.0243 3.65031 11.387 3.65795C11.7508 3.66509 11.931 3.32781 11.931 3.32781C11.0455 3.23948 10.7873 2.9264 10.7873 2.9264C10.7873 2.9264 11.6307 2.8836 12.0576 2.82646C12.4842 2.76872 13.2622 2.56014 13.2622 2.56014C13.2622 2.56014 13.2327 3.25834 13.2267 3.66425C13.2229 4.06979 13.7434 3.98114 13.917 3.92592C14.1356 3.85685 14.17 3.04785 14.206 2.35595C14.2333 1.83295 13.846 1.82886 13.6249 1.92119C13.2993 2.05768 12.6799 2.37565 12.0113 2.58065C11.3417 2.78457 10.2941 2.63621 10.2941 2.63621L10.2368 2.85405L11.1184 3.39662L10.8342 3.58563ZM12.2845 6.90275L12.523 6.8002C12.523 6.8002 12.3401 6.26447 12.327 5.79073C12.3161 5.31515 12.511 4.26356 12.511 4.26356H12.2845C12.2845 4.26356 12.1813 5.03643 12.0473 5.71221C11.9152 6.38853 11.5606 6.25626 11.387 6.24312C11.2139 6.22975 9.83746 6.03239 9.83746 6.03239V6.23548C9.83746 6.23548 9.92427 6.24697 10.6206 6.34805C11.3187 6.44899 12.2845 6.90275 12.2845 6.90275ZM13.1421 9.88072C12.5746 10.2453 11.6422 10.0647 11.6422 10.0647C11.7672 10.241 12.4444 10.4487 12.7854 10.4427C13.0804 10.4372 13.3419 10.3192 13.5747 10.0647C14.0816 9.51051 13.8749 8.58623 13.7516 8.47051C13.7516 8.47051 13.6959 9.52472 13.1421 9.88072ZM11.83 26.3263C10.5255 25.0225 11.0019 25.1536 11.83 23.992C12.4433 23.13 15.4354 22.37 16.9427 22.0352L16.9137 21.8968C16.15 21.9304 15.0047 21.9709 13.8542 21.9698C11.884 21.9684 11.0887 21.2169 10.5785 21.3126C8.61982 21.68 10.0127 23.9291 7.71473 23.61C5.41647 23.2926 5.49235 25.6774 5.49235 25.6774C6.14442 24.3506 6.8186 24.5367 7.33751 24.5141C7.93825 24.4878 8.52538 24.9327 9.36934 24.2227C9.55441 24.0679 10.3935 22.7071 10.2728 23.3875C10.2024 23.7844 9.85929 24.2388 9.58498 24.5502C9.38901 24.7727 9.27548 24.9423 9.67423 25.1683C9.81562 25.2497 10.0023 25.3567 10.2433 25.496C11.1735 26.0313 11.0188 26.6405 10.4131 26.609C9.98213 26.5852 9.47141 26.3737 9.04373 26.3291C8.8701 26.311 8.67276 26.3835 8.94818 26.5144C9.09232 26.583 9.25581 26.6833 9.39774 26.8255C10.0798 27.5084 9.26451 27.2391 11.2183 27.1337C11.634 27.1099 11.9299 27.0716 12.1398 27.0278C12.9163 26.8576 12.0009 26.4969 11.83 26.3263ZM21.8787 27.4636C21.7212 27.2192 21.5946 26.875 21.4483 26.5686C21.1368 25.9152 21.4428 26.0415 21.2498 25.6653C21.0342 25.2489 20.9261 25.6566 20.3837 24.8244C20.277 24.6593 20.0619 24.7317 20.0357 25.13C20.0074 25.5269 20.6736 25.9021 20.9774 26.866C21.2831 27.8313 21.5345 27.9434 21.2861 28.5355C21.0407 29.1281 19.8327 29.0926 19.8327 29.0926C20.7751 30.0751 22.6945 28.7345 21.8787 27.4636Z" fill="#fff"/><path fill-rule="evenodd" clip-rule="evenodd" d="M32.0405 32L31.6484 31.8569L43.2127 0L43.6045 0.143116L32.0405 32Z" fill="#fff"/></svg>