<svg width="98" height="31" viewBox="0 0 98 31" fill="none" xmlns="http://www.w3.org/2000/svg"><path d="M24.5166 0.576904H0.232858C0.0997962 0.576904 0 0.675741 0 0.807524V26.2745C0 27.1311 0.698573 27.823 1.56347 27.823C1.56347 27.823 9.34758 27.823 9.7135 27.823C10.1127 27.823 10.3123 27.9548 10.4786 28.1525C10.6449 28.3501 12.2417 30.261 12.2417 30.261C12.2749 30.3269 12.3415 30.3269 12.408 30.3269C12.4745 30.3269 12.5078 30.2939 12.5743 30.261C12.5743 30.261 14.1711 28.3831 14.3374 28.1525C14.5037 27.9548 14.7033 27.823 15.1025 27.823C15.4684 27.823 23.2525 27.823 23.2525 27.823C24.1174 27.823 24.816 27.1311 24.816 26.2745V0.807524C24.7827 0.675741 24.6497 0.576904 24.5166 0.576904Z" fill="#8B0208"/><path d="M24.5166 0.576904H0.232858C0.0997962 0.576904 0 0.675741 0 0.807524V20.0149C0 20.8715 0.698573 21.5633 1.56347 21.5633C1.56347 21.5633 4.72369 21.5633 5.08961 21.5633C5.48879 21.5633 5.68838 21.6951 5.85471 21.8928C6.02104 22.0904 7.61778 24.0013 7.61778 24.0013C7.65104 24.0672 7.71757 24.0672 7.7841 24.0672C7.85064 24.0672 7.8839 24.0342 7.95043 24.0013C7.95043 24.0013 9.54717 22.1234 9.7135 21.8928C9.87982 21.6951 10.0794 21.5633 10.4786 21.5633C10.8445 21.5633 23.2525 21.5633 23.2525 21.5633C24.1174 21.5633 24.816 20.8715 24.816 20.0149V0.807524C24.7827 0.675741 24.6497 0.576904 24.5166 0.576904Z" fill="#B7121B"/><path d="M24.5166 0.576904H0.232858C0.0997962 0.576904 0 0.675741 0 0.807524V12.3385C0 13.1951 0.698573 13.887 1.56347 13.887C1.56347 13.887 13.9382 13.887 14.3041 13.887C14.7033 13.887 14.9029 14.0187 15.0692 14.2164C15.2356 14.4141 16.8323 16.292 16.8323 16.292C16.8656 16.3579 16.9321 16.3579 16.9986 16.3579C17.0652 16.3579 17.0984 16.3249 17.1649 16.292C17.1649 16.292 18.7617 14.4141 18.928 14.2164C19.0943 14.0187 19.2939 13.887 19.6931 13.887C20.059 13.887 23.2193 13.887 23.2193 13.887C24.0842 13.887 24.7827 13.1951 24.7827 12.3385V0.807524C24.7827 0.675741 24.6497 0.576904 24.5166 0.576904Z" fill="#ED1C28"/><path d="M28.6418 5.78269H27.7103V4.33308H28.1428L29.673 0.873779H30.172L31.7354 4.33308H32.2012V5.78269H31.2697V5.2885H28.6418V5.78269ZM29.3071 4.30013H30.5711L29.9391 2.71874L29.3071 4.30013Z" fill="#fff"/><path d="M35.5276 1.89485C34.8623 1.89485 34.5297 1.89485 33.8976 1.89485V2.52082H35.3946C35.3946 2.85028 35.3946 3.17973 35.3946 3.50919H33.8976C33.8976 3.77276 33.8976 4.00338 33.8976 4.26694C34.5629 4.26694 34.9289 4.26694 35.5942 4.26694C35.5942 4.5964 35.5942 4.92586 35.5942 5.25531C34.5629 5.25531 33.7978 5.25531 32.7666 5.25531C32.7666 3.8057 32.7666 2.32315 32.7666 0.873535C33.7978 0.873535 34.4964 0.873535 35.5276 0.873535C35.5276 1.23594 35.5276 1.56539 35.5276 1.89485Z" fill="#fff"/><path d="M40.2521 5.28827C39.853 5.28827 39.487 5.28827 39.0879 5.28827V1.92781H37.724V5.28827C37.3248 5.28827 36.9589 5.28827 36.5597 5.28827V0.906494C36.9256 0.906494 37.3248 0.906494 40.2521 0.906494V5.28827Z" fill="#fff"/><path d="M43.9438 4.72817H42.214L41.9479 5.28825H40.8501V5.12352L42.846 0.840576H43.345L45.3409 5.12352V5.28825H44.2432L43.9438 4.72817ZM43.0456 2.61964L42.5466 3.77274H43.5446L43.0456 2.61964Z" fill="#fff"/><path d="M45.8737 5.28827C45.8737 3.83866 45.8737 2.3561 45.8737 0.906494C46.5057 0.906494 47.171 0.906494 47.8363 0.906494C49.9653 0.906494 49.9653 4.16812 47.8363 4.16812H47.0047V5.28827C46.6388 5.28827 46.2396 5.28827 45.8737 5.28827ZM47.8363 1.89487C47.5702 1.89487 47.2708 1.89487 47.0379 1.89487C47.0379 2.25727 47.0379 2.7844 47.0379 3.1468H47.8363C48.4351 3.1468 48.4684 1.92781 47.8363 1.89487Z" fill="#fff"/><path d="M49.8325 1.89487C49.8325 1.56541 49.8325 1.23595 49.8325 0.906494H53.1258C53.1258 1.23595 53.1258 1.56541 53.1258 1.89487H52.028V5.28827C51.6621 5.28827 51.2962 5.28827 50.897 5.28827V1.89487H49.8325Z" fill="#fff"/><path d="M56.1194 4.72817H54.3896L54.1235 5.28825H53.0258V5.12352L55.0217 0.840576H55.5207L57.5166 5.12352V5.28825H56.4188L56.1194 4.72817ZM55.2213 2.61964L54.7223 3.77274H55.7203L55.2213 2.61964Z" fill="#fff"/><path d="M61.9738 0.906494H62.373V5.28827C61.9738 5.28827 61.6079 5.28827 61.2087 5.28827V3.34448L60.2772 4.33285H60.1442L59.2128 3.34448V5.28827C58.8136 5.28827 58.4476 5.28827 58.0485 5.28827V0.906494H58.4809L60.2107 2.81734L61.9738 0.906494Z" fill="#fff"/><path d="M66.2654 1.89485C65.6001 1.89485 65.2675 1.89485 64.6354 1.89485V2.52082H66.1324C66.1324 2.85028 66.1324 3.17973 66.1324 3.50919H64.6354C64.6354 3.77276 64.6354 4.00338 64.6354 4.26694C65.3007 4.26694 65.6667 4.26694 66.332 4.26694C66.332 4.5964 66.332 4.92586 66.332 5.25531C65.3007 5.25531 64.5356 5.25531 63.5044 5.25531C63.5044 3.8057 63.5044 2.32315 63.5044 0.873535C64.5356 0.873535 65.2342 0.873535 66.2654 0.873535C66.2654 1.23594 66.2654 1.56539 66.2654 1.89485Z" fill="#fff"/><path d="M70.9891 5.28827C70.5899 5.28827 70.224 5.28827 69.8248 5.28827V3.54215H68.4609V5.28827C68.0617 5.28827 67.6958 5.28827 67.2966 5.28827V0.906494C67.6626 0.906494 68.0617 0.906494 68.4609 0.906494V2.48789H69.8248V0.906494C70.224 0.906494 70.5899 0.906494 70.9891 0.906494V5.28827Z" fill="#fff"/><path d="M71.687 1.89487C71.687 1.56541 71.687 1.23595 71.687 0.906494H74.9803C74.9803 1.23595 74.9803 1.56541 74.9803 1.89487H73.8825V5.28827C73.5166 5.28827 73.1507 5.28827 72.7515 5.28827V1.89487H71.687Z" fill="#fff"/><path d="M28.6754 12.8H28.2762V8.4182C28.6754 8.4182 29.0413 8.4182 29.4405 8.4182V10.5597L31.6693 8.38525H32.0685V12.8C31.6693 12.8 31.3034 12.8 30.9042 12.8V10.6585L28.6754 12.8Z" fill="#fff"/><path d="M36.8914 12.7997C36.4923 12.7997 36.1263 12.7997 35.7271 12.7997V11.0536H34.3633V12.7997C33.9641 12.7997 33.5982 12.7997 33.199 12.7997V8.41797C33.5649 8.41797 33.9641 8.41797 34.3633 8.41797V9.99936H35.7271V8.41797C36.1263 8.41797 36.4923 8.41797 36.8914 8.41797V12.7997Z" fill="#fff"/><path d="M39.8526 12.4376C38.7215 12.4046 37.7568 11.9434 37.7568 10.5926C37.7568 9.24184 38.6883 8.7806 39.8526 8.74766V8.38525H40.9503V8.74766C42.0813 8.7806 43.046 9.2089 43.046 10.5926C43.046 11.9434 42.1146 12.4046 40.9503 12.4376V12.8H39.8858V12.4376H39.8526ZM39.8526 11.4163V9.80192C39.3536 9.83486 38.9211 9.99959 38.9211 10.6256C38.9211 11.2186 39.3868 11.3833 39.8526 11.4163ZM40.917 9.80192V11.4163C41.3828 11.3833 41.8485 11.2186 41.8485 10.5926C41.8485 9.96665 41.3828 9.80192 40.917 9.80192Z" fill="#fff"/><path d="M43.5776 10.6255C43.5776 7.59454 48.135 7.59454 48.135 10.6255C48.135 13.6566 43.5776 13.6566 43.5776 10.6255ZM46.9707 10.6255C46.9707 9.04415 44.7419 9.04415 44.7419 10.6255C44.7419 12.2069 46.9707 12.2069 46.9707 10.6255Z" fill="#fff"/><path d="M48.9669 12.7997C48.9669 11.3501 48.9669 9.86758 48.9669 8.41797C49.599 8.41797 50.2643 8.41797 50.9296 8.41797C53.0586 8.41797 53.0586 11.6796 50.9296 11.6796H50.0979V12.7997C49.732 12.7997 49.3661 12.7997 48.9669 12.7997ZM50.9296 9.40634C50.6635 9.40634 50.3641 9.40634 50.1312 9.40634C50.1312 9.76874 50.1312 10.2959 50.1312 10.6583H50.9296C51.5284 10.6583 51.5949 9.43929 50.9296 9.40634Z" fill="#fff"/><path d="M57.2835 8.41797H57.6827V12.7997C57.2835 12.7997 56.9176 12.7997 56.5184 12.7997V10.856L55.5869 11.8443H55.4539L54.5224 10.856V12.7997C54.1233 12.7997 53.7573 12.7997 53.3582 12.7997V8.41797H53.7906L55.5204 10.3288L57.2835 8.41797Z" fill="#fff"/><path d="M61.3746 12.2399H59.6448L59.3786 12.8H58.2809V12.6352L60.2768 8.35229H60.7758L62.7717 12.6352V12.8H61.674L61.3746 12.2399ZM60.4764 10.1314L59.9774 11.2845H60.9754L60.4764 10.1314Z" fill="#fff"/><path d="M63.3044 8.41797H64.4687V11.7784H65.7661V8.41797H66.9304V11.8443H67.3628V13.2939H66.4314V12.7997H63.3044V8.41797Z" fill="#fff"/><path d="M68.4606 12.8H68.0614V8.4182C68.4606 8.4182 68.8265 8.4182 69.2257 8.4182V10.5597L71.4545 8.38525H71.8537V12.8C71.4545 12.8 71.0886 12.8 70.6894 12.8V10.6585L68.4606 12.8Z" fill="#fff"/><path d="M72.7192 10.6255C72.7192 7.59454 77.2766 7.59454 77.2766 10.6255C77.2766 13.6566 72.7192 13.6566 72.7192 10.6255ZM76.1123 10.6255C76.1123 9.04415 73.8835 9.04415 73.8835 10.6255C73.8835 12.2069 76.1123 12.2069 76.1123 10.6255Z" fill="#fff"/><path d="M81.8001 12.7997C81.4009 12.7997 81.035 12.7997 80.6358 12.7997V11.0536H79.272V12.7997C78.8728 12.7997 78.5069 12.7997 78.1077 12.7997V8.41797C78.4736 8.41797 78.8728 8.41797 79.272 8.41797V9.99936H80.6358V8.41797C81.035 8.41797 81.4009 8.41797 81.8001 8.41797V12.7997Z" fill="#fff"/><path d="M86.6237 12.7997C86.2245 12.7997 85.8586 12.7997 85.4594 12.7997V11.0536H84.0956V12.7997C83.6964 12.7997 83.3305 12.7997 82.9313 12.7997V8.41797C83.2972 8.41797 83.6964 8.41797 84.0956 8.41797V9.99936H85.4594V8.41797C85.8586 8.41797 86.2245 8.41797 86.6237 8.41797V12.7997Z" fill="#fff"/><path d="M88.8859 8.41797V9.7358H89.7175C91.8465 9.7358 91.8465 12.7997 89.7175 12.7997H87.7549V8.41797H88.8859ZM88.8859 10.7242V11.7784C89.152 11.7784 89.4182 11.7784 89.6843 11.7784C90.3496 11.7784 90.3163 10.7242 89.6843 10.7242H88.8859ZM92.1127 8.41797H93.2437V12.7997H92.1127V8.41797Z" fill="#fff"/><path d="M95.9381 11.416L95.1398 12.7998H93.9089V12.635L95.3394 10.4936L94.0753 8.61566V8.45093H95.2396L95.9381 9.60403H95.9714L96.67 8.45093H97.8343V8.61566L96.5702 10.4936L98.0006 12.635V12.7998H96.7698L95.9714 11.416H95.9381Z" fill="#fff"/><path d="M27.8105 16.951C27.8105 16.6216 27.8105 16.2921 27.8105 15.9626H31.1038C31.1038 16.2921 31.1038 16.6216 31.1038 16.951H30.0061V20.3444C29.6401 20.3444 29.2742 20.3444 28.875 20.3444V16.951H27.8105Z" fill="#fff"/><path d="M34.597 16.951C33.9317 16.951 33.5991 16.951 32.967 16.951V17.577H34.464C34.464 17.9064 34.464 18.2359 34.464 18.5653H32.9338C32.9338 18.8289 32.9338 19.0595 32.9338 19.3231C33.5991 19.3231 33.965 19.3231 34.6303 19.3231C34.6303 19.6525 34.6303 19.982 34.6303 20.3115C33.5991 20.3115 32.834 20.3115 31.8027 20.3115C31.8027 18.8619 31.8027 17.3793 31.8027 15.9297C32.834 15.9297 33.5325 15.9297 34.5638 15.9297C34.597 16.2591 34.597 16.5886 34.597 16.951Z" fill="#fff"/><path d="M37.1585 18.9278L36.3601 20.3115H35.1293V20.1468L36.5597 18.0053L35.2956 16.1274V15.9626H36.4599L37.1585 17.1157H37.1917L37.8903 15.9626H39.0546V16.1274L37.7905 18.0053L39.2209 20.1468V20.3115H37.9901L37.1917 18.9278H37.1585Z" fill="#fff"/><path d="M43.5445 20.3115C43.1453 20.3115 42.7794 20.3115 42.3802 20.3115V18.5653H41.0163V20.3115C40.6172 20.3115 40.2512 20.3115 39.8521 20.3115V15.9297C40.218 15.9297 40.6172 15.9297 41.0163 15.9297V17.5111H42.3802V15.9297C42.7794 15.9297 43.1453 15.9297 43.5445 15.9297V20.3115Z" fill="#fff"/><path d="M44.4099 18.137C44.4099 15.106 48.9673 15.106 48.9673 18.137C48.9673 21.168 44.4099 21.168 44.4099 18.137ZM47.803 18.137C47.803 16.5556 45.5742 16.5556 45.5742 18.137C45.5742 19.7184 47.803 19.7184 47.803 18.137Z" fill="#fff"/><path d="M50.3646 20.3114H49.2668V20.1467L51.2628 15.8638H51.7618L53.7577 20.1467V20.3114H52.6599L51.5289 17.7417L50.3646 20.3114Z" fill="#fff"/><path d="M54.0238 18.137C54.0238 15.106 58.5812 15.106 58.5812 18.137C58.5812 21.168 54.0238 21.168 54.0238 18.137ZM57.4169 18.137C57.4169 16.5556 55.1881 16.5556 55.1881 18.137C55.1881 19.7184 57.4169 19.7184 57.4169 18.137Z" fill="#fff"/><path d="M60.5765 20.3115C60.2106 20.3115 59.8114 20.3115 59.4122 20.3115V15.9297C60.3104 15.9297 61.2751 15.9297 62.1733 15.9297C62.1733 16.2921 62.1733 16.5557 62.1733 16.9181H60.5765V20.3115Z" fill="#fff"/><path d="M63.4046 20.3115H63.0054V15.9297C63.4046 15.9297 63.7705 15.9297 64.1697 15.9297V18.0711L66.3984 15.8967H66.7976V20.3115C66.3984 20.3115 66.0325 20.3115 65.6333 20.3115V18.17L63.4046 20.3115Z" fill="#fff"/><path d="M68.3606 20.3114H67.9614V15.9296C68.3606 15.9296 68.7265 15.9296 69.1257 15.9296V18.0711L71.3545 15.8967H71.7537V20.3114C71.3545 20.3114 70.9886 20.3114 70.5894 20.3114V18.1699L68.3606 20.3114ZM69.5914 14.5789C69.3586 14.5789 69.159 14.6118 68.9261 14.6447C68.9594 15.3366 69.3586 15.732 70.0239 15.732C70.7224 15.732 71.1216 15.3696 71.1216 14.6447C70.922 14.6118 70.6892 14.5789 70.4563 14.5789C70.4231 14.8424 70.2567 14.9083 69.9906 14.9083C69.7578 14.9083 69.5914 14.8095 69.5914 14.5789Z" fill="#fff"/><path d="M29.4072 27.8232C29.0413 27.8232 28.6421 27.8232 28.2429 27.8232V23.4414C29.1411 23.4414 30.1058 23.4414 31.0039 23.4414C31.0039 23.8038 31.0039 24.0674 31.0039 24.4298H29.4072V27.8232Z" fill="#fff"/><path d="M31.4037 25.6487C31.4037 22.6177 35.961 22.6177 35.961 25.6487C35.961 28.6798 31.4037 28.6798 31.4037 25.6487ZM34.7968 25.6487C34.7968 24.0673 32.568 24.0673 32.568 25.6487C32.568 27.2301 34.7968 27.2301 34.7968 25.6487Z" fill="#fff"/><path d="M36.7921 27.8232C36.7921 26.3736 36.7921 24.891 36.7921 23.4414C37.4242 23.4414 38.0895 23.4414 38.7548 23.4414C40.8838 23.4414 40.8838 26.703 38.7548 26.703H37.9231V27.8232C37.5572 27.8232 37.158 27.8232 36.7921 27.8232ZM38.7548 24.4627C38.4887 24.4627 38.1893 24.4627 37.9564 24.4627C37.9564 24.8251 37.9564 25.3523 37.9564 25.7147H38.7548C39.3536 25.7147 39.3868 24.4627 38.7548 24.4627Z" fill="#fff"/><path d="M40.9167 25.6487C40.9167 22.6177 45.4741 22.6177 45.4741 25.6487C45.4408 28.6798 40.9167 28.6798 40.9167 25.6487ZM44.3098 25.6487C44.3098 24.0673 42.081 24.0673 42.081 25.6487C42.081 27.2301 44.3098 27.2301 44.3098 25.6487Z" fill="#fff"/><path d="M46.7051 28.3174H45.7737V26.8677H46.2061L47.7363 23.4084H48.2353L49.7988 26.8677H50.2645V28.3174H49.3331V27.8232H46.7051V28.3174ZM47.3704 26.8677H48.6345L48.0025 25.2864L47.3704 26.8677Z" fill="#fff"/><path d="M53.6243 27.296H51.8945L51.6284 27.8561H50.5306V27.6914L52.5266 23.4084H53.0255L55.0215 27.6914V27.8561H53.8904L53.6243 27.296ZM52.7594 25.1875L52.2604 26.3406H53.2584L52.7594 25.1875Z" fill="#fff"/><path d="M61.2423 23.4414H61.6415V27.8232C61.2423 27.8232 60.8764 27.8232 60.4772 27.8232V25.8794L59.5458 26.8678H59.4127L58.4813 25.8794V27.8232C58.0821 27.8232 57.7162 27.8232 57.317 27.8232V23.4414H57.7495L59.4793 25.3523L61.2423 23.4414Z" fill="#fff"/><path d="M62.473 25.6487C62.473 22.6177 67.0304 22.6177 67.0304 25.6487C67.0304 28.6798 62.473 28.6798 62.473 25.6487ZM65.8661 25.6487C65.8661 24.0673 63.6373 24.0673 63.6373 25.6487C63.6373 27.2301 65.8661 27.2301 65.8661 25.6487Z" fill="#fff"/><path d="M69.891 23.4084C70.8224 23.4084 71.7871 23.9026 71.9867 25.0887C71.5875 25.0887 71.2549 25.0887 70.889 25.0887C70.7226 24.6604 70.39 24.4298 69.9243 24.4298C69.259 24.4298 68.8265 24.9239 68.8265 25.6488C68.8265 26.3077 69.259 26.8677 69.9243 26.8677C70.39 26.8677 70.7892 26.6371 70.9222 26.1759C71.2881 26.1759 71.6541 26.1759 72.02 26.1759C71.8536 27.4278 70.8557 27.8891 69.9243 27.8891C68.7932 27.8891 67.6622 27.1313 67.6622 25.6488C67.6289 24.1662 68.76 23.4084 69.891 23.4084Z" fill="#fff"/><path d="M72.8517 27.8232V23.4414C73.2176 23.4414 73.6168 23.4414 74.016 23.4414V25.0887H74.0825C75.2135 25.0887 75.147 24.265 75.147 23.4414C75.5462 23.4414 75.9121 23.4414 76.3113 23.4414C76.3113 24.3309 76.3446 25.1546 75.4464 25.7147L76.6439 27.6585V27.8232H75.3799L74.4152 26.11C74.2488 26.143 74.1158 26.143 73.9827 26.143V27.8232C73.6168 27.8232 73.2509 27.8232 72.8517 27.8232Z" fill="#fff"/><path d="M80.237 25.5499C80.6029 25.7476 80.7692 26.0441 80.7692 26.4395C80.7692 27.1972 80.3035 27.8232 79.4053 27.8232H77.3429V23.4414H79.239C80.0041 23.4414 80.6029 24.0344 80.6029 24.7922C80.6029 25.0557 80.4698 25.3852 80.237 25.5499ZM78.4406 24.4627V25.1546H79.1392C79.5717 25.1546 79.5717 24.4627 79.1392 24.4627H78.4406ZM78.4406 26.11V26.8678H79.3388C79.8045 26.8678 79.7713 26.11 79.3388 26.11H78.4406Z" fill="#fff"/><path d="M82.7976 23.4414V24.7592H83.6293C85.7583 24.7592 85.7583 27.8232 83.6293 27.8232H81.6666V23.4414H82.7976ZM82.7976 25.7805V26.8348C83.0638 26.8348 83.3299 26.8348 83.596 26.8348C84.2613 26.8348 84.2281 25.7805 83.596 25.7805H82.7976ZM86.0244 23.4414H87.1554V27.8232H86.0244V23.4414Z" fill="#fff"/></svg>