<svg width="492" height="279" viewBox="0 0 492 279" fill="none" xmlns="http://www.w3.org/2000/svg"><path d="M194.41 43.5265C190.8 43.4624 187.235 44.3308 184.059 46.0478V124.608H182.864V78.2946C182.334 78.2946 181.803 78.4273 181.272 78.4273V77.8965C176.495 78.2946 172.779 79.2235 171.85 81.8776C171.316 82.5057 171.032 83.3091 171.054 84.1335V127.262H168.665V128.589H166.277V136.153H165.348V138.409H164.949V145.575H162.694V128.987L162.561 128.589V127.262H162.163L162.03 125.139L161.897 123.546C162.03 123.414 162.163 123.414 162.163 123.148C162.163 123.043 162.121 122.941 162.046 122.867C161.971 122.792 161.87 122.75 161.765 122.75C161.659 122.75 161.558 122.792 161.483 122.867C161.408 122.941 161.367 123.043 161.367 123.148C161.367 123.281 161.499 123.414 161.632 123.546L161.499 125.139L161.367 127.262H160.968V127.793H159.509V127.129L158.049 126.333H157.518L155.926 127.129V127.793H154.466V127.262H154.068L153.935 125.139L153.802 123.546C153.935 123.414 154.068 123.414 154.068 123.148C154.068 123.043 154.026 122.941 153.951 122.867C153.877 122.792 153.775 122.75 153.67 122.75C153.564 122.75 153.463 122.792 153.388 122.867C153.314 122.941 153.272 123.043 153.272 123.148C153.272 123.281 153.404 123.414 153.537 123.546L153.404 125.139L153.272 127.262H153.404V128.589L153.272 128.987V135.755H151.148V118.504H151.281V116.115H150.75L150.485 113.328L150.352 111.338C150.485 111.205 150.75 111.072 150.75 110.807C150.75 110.666 150.694 110.531 150.595 110.431C150.495 110.332 150.36 110.276 150.219 110.276C150.079 110.276 149.944 110.332 149.844 110.431C149.745 110.531 149.689 110.666 149.689 110.807C149.689 111.072 149.821 111.205 150.087 111.338L149.954 113.328L149.689 116.115H149.158V117.84H147.035V116.248H145.708V103.11H145.575L145.442 102.181V101.518L145.575 101.385C145.575 101.35 145.561 101.316 145.536 101.291C145.511 101.266 145.477 101.252 145.442 101.252L145.309 101.385C145.309 101.518 145.309 101.518 145.442 101.518V102.181L145.309 103.11H145.177V103.641H144.779V103.11H144.115V102.712H143.186C143.193 102.528 143.238 102.347 143.319 102.181C143.335 101.818 143.258 101.457 143.095 101.132C142.933 100.807 142.69 100.528 142.39 100.323V99.6598H141.992L141.594 91.2995L141.328 86.9203L141.859 87.1857L141.461 86.7876C141.719 86.7243 141.944 86.5665 142.092 86.3454C142.239 86.1243 142.298 85.8559 142.257 85.5933C142.276 85.3685 142.221 85.1438 142.101 84.9525C141.982 84.7613 141.804 84.6137 141.594 84.5316C141.777 84.6369 141.925 84.7937 142.019 84.9825C142.113 85.1713 142.15 85.3837 142.125 85.5933C142.101 85.8806 141.985 86.1526 141.794 86.3681C141.602 86.5836 141.346 86.7309 141.063 86.7876C140.767 86.7607 140.493 86.6223 140.296 86.4004C140.099 86.1786 139.993 85.89 140.001 85.5933C140.001 85.3872 140.049 85.1841 140.141 84.9998C140.234 84.8155 140.367 84.6553 140.532 84.5316C140.333 84.6286 140.166 84.7796 140.048 84.9673C139.931 85.155 139.869 85.3719 139.869 85.5933C139.873 85.8477 139.95 86.0956 140.091 86.3074C140.233 86.5191 140.432 86.6858 140.665 86.7876L140.267 87.1857L140.798 86.9203L140.532 91.2995L140.134 99.6598H139.736V100.323C139.448 100.54 139.213 100.82 139.052 101.143C138.891 101.465 138.807 101.821 138.807 102.181C138.807 102.447 138.807 102.712 138.94 102.712H138.011V103.11H137.347V103.641H136.949V103.11H136.817L136.684 102.181V101.518L136.817 101.385C136.817 101.35 136.803 101.316 136.778 101.291C136.753 101.266 136.719 101.252 136.684 101.252C136.583 101.266 136.49 101.313 136.418 101.385C136.418 101.518 136.418 101.518 136.551 101.518V102.181L136.418 103.11H136.286V116.38H134.826V117.973H132.703V116.248H132.172L131.907 113.461L131.774 111.47C131.907 111.338 132.172 111.205 132.172 110.939C132.172 110.799 132.116 110.664 132.016 110.564C131.917 110.465 131.782 110.409 131.641 110.409C131.5 110.409 131.365 110.465 131.266 110.564C131.166 110.664 131.11 110.799 131.11 110.939C131.11 111.205 131.243 111.338 131.508 111.47L131.376 113.461L131.11 116.248H130.845V118.636H130.978V135.888H126.466V129.12L126.333 128.722V127.395H125.935L125.802 125.271L125.669 123.679C125.802 123.546 125.935 123.546 125.935 123.281C125.935 123.175 125.893 123.074 125.818 122.999C125.744 122.925 125.642 122.883 125.537 122.883C125.431 122.883 125.33 122.925 125.255 122.999C125.181 123.074 125.139 123.175 125.139 123.281C125.139 123.414 125.271 123.546 125.404 123.679L125.271 125.271L125.139 127.395H124.741V127.925H123.281V127.129L121.821 126.333H121.556L120.096 127.129V127.793H118.636V127.262H118.238L118.105 125.139L117.973 123.546C118.105 123.414 118.238 123.414 118.238 123.148C118.238 123.043 118.196 122.941 118.122 122.867C118.047 122.792 117.946 122.75 117.84 122.75C117.734 122.75 117.633 122.792 117.559 122.867C117.484 122.941 117.442 123.043 117.442 123.148C117.442 123.281 117.575 123.414 117.707 123.546L117.575 125.139L117.442 127.262H117.044V128.589L116.911 128.987V151.945H116.115L115.451 153.404H115.717V156.191H114.257V156.722L112.665 158.58H111.736V161.765H111.205V162.826H110.541V167.073H108.285V168.002H108.684V172.381C67.1476 181.935 30.3889 193.481 0 206.751C97.5365 175.566 230.637 156.324 377.407 156.324C390.013 156.324 401.426 156.457 413.9 156.722L413.767 117.84V117.044L412.706 101.783V98.2H414.431V96.6076H413.502V94.4843H414.033V92.7592H412.44L412.042 81.0814V79.7543H412.175V78.1619H411.777V76.8349H412.175V75.2424H411.777L411.378 64.8916H412.44V63.5646H412.971V60.247H412.573V59.5835H412.175V56.6641H412.573V54.8062H411.511V51.7541H411.909V50.2943H411.511V46.9768H411.909V45.517H411.511V41.9341H412.706V39.4127H413.236V36.626H412.971V32.2468H411.246V28.133H411.644V27.6022H410.848V20.8343H411.246V20.3035H410.45V13.8011H410.98V13.5357H410.317V9.02379H410.582V8.49298H410.184V4.24649H410.45V3.71568H410.051V0.530813H410.317V0H409.786V0.530813H410.051V3.58297H409.521V4.24649H409.786V8.49298H409.388V9.02379H409.653V13.2703H408.99V13.8011H409.521V20.1708H408.724V20.7016H409.123V27.4695H408.194V28.0003H408.592V32.1141H406.867V36.4933H406.601V39.28H407.132V41.8014H408.326V45.3843H407.928V46.8441H408.326V50.1616H407.928V51.6214H408.326V54.6735H407.397V56.5314H407.796V59.4508H407.397V60.1143H406.867V63.4319H407.397V64.7589H408.459L408.061 75.1097H407.663V76.7022H408.061V78.0292H407.663V79.6216H407.796V80.9487L407.397 92.6265H405.805V94.3517H406.336V96.6076H405.54V98.2H407.265V101.783L406.734 117.044V117.84L406.469 126.466C406.303 126.385 406.122 126.34 405.938 126.333L406.203 128.589H405.407L405.672 126.333C405.393 126.506 405.072 126.597 404.743 126.597C404.415 126.597 404.093 126.506 403.814 126.333L404.08 128.589H402.885L403.151 126.333C402.872 126.506 402.55 126.597 402.222 126.597C401.894 126.597 401.572 126.506 401.293 126.333L401.558 128.589H400.762L401.028 126.333C400.749 126.506 400.427 126.597 400.099 126.597C399.771 126.597 399.449 126.506 399.17 126.333L399.435 128.589H398.639L398.904 126.333C398.625 126.506 398.304 126.597 397.975 126.597C397.647 126.597 397.326 126.506 397.047 126.333L397.312 128.589H396.383V123.679H396.516V122.485H394.923L393.729 117.177L392.535 122.485H391.473V123.944H391.738V128.987H391.208L391.473 126.731C391.194 126.904 390.872 126.995 390.544 126.995C390.216 126.995 389.894 126.904 389.615 126.731L389.881 128.987H389.084L389.35 126.731C389.071 126.904 388.749 126.995 388.421 126.995C388.093 126.995 387.771 126.904 387.492 126.731L387.757 128.987H386.828L387.094 126.731C386.815 126.904 386.493 126.995 386.165 126.995C385.837 126.995 385.515 126.904 385.236 126.731L385.501 128.987H384.573L384.838 126.731C384.559 126.904 384.237 126.995 383.909 126.995C383.581 126.995 383.259 126.904 382.98 126.731L383.246 128.987H382.449L382.715 126.731C382.436 126.904 382.114 126.995 381.786 126.995C381.458 126.995 381.136 126.904 380.857 126.731L381.122 128.987H380.326L380.591 126.731C380.312 126.904 379.991 126.995 379.663 126.995C379.334 126.995 379.013 126.904 378.734 126.731L378.999 128.987H378.203L378.468 126.731C378.336 126.731 378.07 126.864 377.937 126.864V100.854L377.672 97.1384V96.6076H378.203V95.546H378.601V92.7592H378.203L377.672 91.0341L377.008 85.3279L376.345 91.0341L375.814 92.7592H375.416V93.29L374.222 92.7592H372.364V88.1146H371.568V80.5506H371.302L370.771 78.1619H370.373V74.4462H370.639V72.7211H371.037V70.3325H370.639V64.8916H370.904L370.373 62.9011L369.444 60.247H367.056L363.473 36.8914L365.198 38.3511L364.402 36.2278L366.26 34.9008L363.871 35.0335L363.34 32.7776L362.809 35.0335L360.421 34.9008L362.278 36.2278L361.482 38.3511L363.207 36.8914L359.624 60.247H357.368L356.44 62.9011L355.909 64.8916H356.174V70.3325H355.776V72.7211H356.174V74.4462H356.44V78.56H356.041L355.511 80.9487H355.113V88.5127H354.582V93.1573H353.785L352.591 93.6881V93.1573H352.193L351.662 91.4322L350.999 85.726L350.335 91.4322L349.804 93.1573H349.406V95.9441H349.804V97.0057H350.335V97.5365L350.07 101.252V129.252H349.539L349.804 126.997C349.525 127.169 349.204 127.261 348.875 127.261C348.547 127.261 348.226 127.169 347.947 126.997L348.212 129.252H347.416L347.681 126.997C347.402 127.169 347.08 127.261 346.752 127.261C346.424 127.261 346.102 127.169 345.823 126.997L346.089 129.252H345.293L345.558 126.997C345.279 127.169 344.957 127.261 344.629 127.261C344.301 127.261 343.979 127.169 343.7 126.997L343.965 129.252H343.169L343.435 126.997C343.156 127.169 342.834 127.261 342.506 127.261C342.178 127.261 341.856 127.169 341.577 126.997L341.842 129.252H341.046L341.311 126.997C341.032 127.169 340.711 127.261 340.383 127.261C340.054 127.261 339.733 127.169 339.454 126.997L339.719 129.252H338.392L338.657 126.997C338.378 127.169 338.057 127.261 337.728 127.261C337.4 127.261 337.079 127.169 336.8 126.997L337.065 129.252H336.136L336.401 126.997C336.122 127.169 335.801 127.261 335.473 127.261C335.144 127.261 334.823 127.169 334.544 126.997L334.809 129.252H334.278V124.21H334.411V122.75H332.553L331.359 117.442L330.164 122.75H328.97V124.21H329.235V129.252H328.705L328.97 126.997C328.691 127.169 328.369 127.261 328.041 127.261C327.713 127.261 327.391 127.169 327.112 126.997L327.378 129.252H326.581L326.847 126.997C326.568 127.169 326.246 127.261 325.918 127.261C325.59 127.261 325.268 127.169 324.989 126.997L325.254 129.252H324.458L324.724 126.997C324.445 127.169 324.123 127.261 323.795 127.261C323.466 127.261 323.145 127.169 322.866 126.997L323.131 129.252H321.937L322.202 126.997C321.923 127.169 321.602 127.261 321.273 127.261C320.945 127.261 320.623 127.169 320.344 126.997L320.61 129.252H319.814L320.079 126.997C319.8 127.169 319.478 127.261 319.15 127.261C318.822 127.261 318.5 127.169 318.221 126.997L318.487 129.252H317.69L317.956 126.997C317.677 127.169 317.355 127.261 317.027 127.261C316.699 127.261 316.377 127.169 316.098 126.997L316.363 129.252H315.567L315.832 126.997C315.553 127.169 315.232 127.261 314.904 127.261C314.575 127.261 314.254 127.169 313.975 126.997L314.24 129.252H313.444L313.709 126.997C313.43 127.169 313.109 127.261 312.78 127.261C312.452 127.261 312.13 127.169 311.851 126.997L312.117 129.252H311.321L311.586 126.997C311.307 127.169 310.985 127.261 310.657 127.261C310.329 127.261 310.007 127.169 309.728 126.997L309.994 129.252H309.197L309.463 126.997C309.184 127.169 308.862 127.261 308.534 127.261C308.206 127.261 307.884 127.169 307.605 126.997L307.87 129.252H306.676V126.864H306.013V125.006H306.145V123.679H305.747V123.148L304.553 118.769H304.818V118.238H304.553V114.788H304.818V114.257H303.757L302.43 110.541L301.103 114.257H300.041V114.788H300.306V118.238H300.041V118.769H300.306L299.112 123.148V123.679H298.714V124.608H298.847V126.466H298.183V136.551H296.325V137.082H295.396V135.357H294.069V138.011H292.344V142.921H290.088V134.693H285.709V136.418H284.515V135.224H279.472V127.262H277.349L274.562 70.3325H273.766V70.067H272.837V68.74H270.05C269.519 65.2897 268.988 63.1665 268.325 63.1665C268.06 63.1665 267.927 63.4319 267.794 63.6973H254.922C254.789 63.2992 254.524 63.1665 254.391 63.1665C252.799 63.1665 251.604 75.3752 251.604 90.3706C251.604 94.7498 251.737 98.8635 251.87 102.579L249.083 102.447V92.4938H249.614V73.9154H249.083V60.5124H249.614V43.5265H246.296V41.6687H240.457V43.5265H239.396V101.518L237.405 102.579V98.0673H237.936V77.8965H236.742V60.7779H237.14V39.28H233.955V37.1568H227.32V39.28H225.86V60.6451H224.931V79.887H225.595V97.1384L224.268 97.9346V80.9487C220.655 81.0216 217.2 82.4414 214.58 84.9297C213.253 96.6076 212.855 122.219 212.855 122.219H211.794V102.314C211.661 101.916 211.263 101.65 210.732 101.119C210.467 99.7924 209.272 98.5981 207.016 97.5365V48.9673H205.955V47.3749H205.424V45.9151C204.872 45.6367 204.295 45.4144 203.699 45.2516C200.711 44.1979 197.577 43.6159 194.41 43.5265Z" fill="#F2113D"/><path d="M118.105 224.267H115.053L105.764 202.637L96.3419 224.267H93.2897L105.498 196.4H106.162L118.105 224.267Z" fill="#fff" stroke="#fff" stroke-width=".85" stroke-miterlimit="10"/><path d="M144.779 224.267H141.859V202.902L123.414 224.267H122.75V196.4H125.537V218.163L144.115 196.4H144.779V224.267Z" fill="#fff" stroke="#fff" stroke-width=".85" stroke-miterlimit="10"/><path d="M151.414 228.381H148.627V221.614H150.883L161.897 196.267H162.826L174.371 221.614H176.495V228.381H173.708V224.268H151.281V228.381H151.414ZM154.068 221.614H171.054L162.295 201.974L154.068 221.614Z" fill="#fff" stroke="#fff" stroke-width=".85" stroke-miterlimit="10"/><path d="M180.609 196.4H196.666V199.187H183.395V207.945H196.533V210.732H183.395V221.746H196.533V224.533H180.609V196.4Z" fill="#fff" stroke="#fff" stroke-width=".85" stroke-miterlimit="10"/><path d="M201.443 196.4H207.016C209.191 196.329 211.368 196.462 213.518 196.798C215.035 197.135 216.392 197.977 217.367 199.187C218.317 200.549 218.826 202.17 218.826 203.831C218.826 205.492 218.317 207.113 217.367 208.476C216.31 209.72 214.857 210.563 213.253 210.865C210.924 211.199 208.571 211.333 206.22 211.263H204.229V224.268H201.443V196.4ZM204.229 199.054V208.476H209.007C210.443 208.56 211.882 208.38 213.253 207.945C214.121 207.601 214.862 206.999 215.376 206.22C215.915 205.442 216.194 204.513 216.173 203.566C216.174 202.663 215.896 201.783 215.376 201.045C214.88 200.301 214.193 199.705 213.386 199.32C212.051 198.928 210.663 198.749 209.272 198.789H204.229V199.054Z" fill="#fff" stroke="#fff" stroke-width=".85" stroke-miterlimit="10"/><path d="M224.4 196.4H227.187V208.343H229.178C231.799 208.239 234.424 208.417 237.007 208.874C238.524 209.211 239.881 210.053 240.855 211.263C241.808 212.723 242.316 214.429 242.316 216.173C242.316 217.916 241.808 219.622 240.855 221.083C240.007 222.33 238.733 223.227 237.273 223.604C234.831 224.121 232.336 224.344 229.841 224.267H224.268V196.4H224.4ZM227.187 221.613H230.107C232.15 221.703 234.197 221.57 236.211 221.215C236.683 221.094 237.127 220.878 237.514 220.582C237.902 220.286 238.226 219.914 238.467 219.49C239.025 218.572 239.302 217.511 239.263 216.438C239.277 215.205 238.906 213.999 238.201 212.988C237.897 212.55 237.503 212.181 237.045 211.906C236.588 211.632 236.077 211.458 235.547 211.395C233.519 211.195 231.481 211.106 229.443 211.13H227.054V221.613H227.187ZM245.633 196.4H248.42V224.267H245.633V196.4Z" fill="#fff" stroke="#fff" stroke-width=".85" stroke-miterlimit="10"/><path d="M286.771 224.267H266.069V196.4H268.856V221.746H281.728V196.4H284.515V221.746H289.292V228.514H286.638V224.267H286.771Z" fill="#fff" stroke="#fff" stroke-width=".85" stroke-miterlimit="10"/><path d="M315.567 224.267H312.648V202.902L294.202 224.267H293.539V196.4H296.325V218.163L314.904 196.4H315.567V224.267Z" fill="#fff" stroke="#fff" stroke-width=".85" stroke-miterlimit="10"/><path d="M334.411 196.4H337.198V199.983H339.321C343.567 199.983 346.487 200.779 348.079 202.504C348.854 203.263 349.466 204.173 349.876 205.177C350.287 206.181 350.488 207.259 350.468 208.343C350.509 210.406 349.748 212.404 348.345 213.917C346.885 215.509 344.231 216.305 340.117 216.305H337.065V224.267H334.278V216.305H331.226C329.435 216.324 327.649 216.101 325.918 215.642C324.445 215.212 323.175 214.271 322.335 212.988C321.361 211.587 320.85 209.916 320.875 208.21C320.854 207.126 321.056 206.048 321.466 205.044C321.877 204.04 322.489 203.131 323.264 202.372C324.856 200.779 327.776 199.85 332.022 199.85H334.145V196.4H334.411ZM334.411 202.637H331.226C329.306 202.558 327.408 203.067 325.785 204.097C325.138 204.563 324.617 205.183 324.269 205.902C323.922 206.62 323.759 207.413 323.795 208.21C323.775 208.928 323.906 209.641 324.181 210.304C324.455 210.967 324.866 211.565 325.387 212.059C326.011 212.629 326.745 213.064 327.544 213.338C328.343 213.612 329.19 213.719 330.032 213.651H334.411V202.637ZM337.198 202.637V213.651H341.577C342.398 213.707 343.221 213.595 343.997 213.321C344.773 213.047 345.485 212.618 346.089 212.059C346.609 211.565 347.02 210.967 347.295 210.304C347.569 209.641 347.701 208.928 347.681 208.21C347.693 207.43 347.532 206.657 347.211 205.946C346.89 205.235 346.416 204.604 345.823 204.097C344.262 202.925 342.329 202.359 340.382 202.504H337.198V202.637Z" fill="#fff" stroke="#fff" stroke-width=".85" stroke-miterlimit="10"/><path d="M356.174 196.4H361.748C363.923 196.329 366.1 196.462 368.25 196.798C369.767 197.135 371.124 197.977 372.098 199.187C373.048 200.549 373.558 202.17 373.558 203.831C373.558 205.492 373.048 207.113 372.098 208.476C371.041 209.72 369.589 210.563 367.985 210.865C365.656 211.199 363.303 211.333 360.951 211.263H358.961V224.268H356.174V196.4ZM358.961 199.054V208.476H363.738C365.174 208.56 366.613 208.38 367.985 207.945C368.852 207.601 369.593 206.999 370.108 206.22C370.647 205.442 370.925 204.513 370.904 203.566C370.906 202.663 370.627 201.783 370.108 201.045C369.612 200.301 368.924 199.705 368.117 199.32C366.782 198.928 365.394 198.749 364.004 198.789H358.961V199.054Z" fill="#fff" stroke="#fff" stroke-width=".85" stroke-miterlimit="10"/><path d="M392.535 195.604C394.5 195.556 396.454 195.907 398.279 196.637C400.104 197.367 401.762 198.46 403.151 199.85C405.217 201.898 406.628 204.513 407.204 207.364C407.78 210.215 407.495 213.173 406.386 215.862C405.276 218.55 403.392 220.848 400.973 222.463C398.554 224.078 395.709 224.937 392.8 224.931C390.857 224.967 388.926 224.609 387.125 223.88C385.323 223.15 383.688 222.063 382.317 220.685C380.941 219.34 379.855 217.728 379.125 215.948C378.394 214.168 378.036 212.258 378.07 210.334C378.053 207.723 378.74 205.155 380.061 202.903C381.33 200.661 383.159 198.786 385.369 197.462C387.555 196.229 390.025 195.588 392.535 195.604ZM392.668 198.391C390.613 198.384 388.595 198.934 386.829 199.983C384.998 201.017 383.484 202.531 382.45 204.362C381.381 206.218 380.831 208.326 380.857 210.467C380.854 212.019 381.157 213.556 381.749 214.991C382.341 216.425 383.211 217.728 384.308 218.826C385.406 219.923 386.709 220.793 388.144 221.385C389.578 221.978 391.116 222.281 392.668 222.277C394.764 222.285 396.825 221.735 398.639 220.685C400.47 219.651 401.984 218.137 403.018 216.306C404.087 214.45 404.637 212.342 404.611 210.201C404.634 208.117 404.091 206.065 403.04 204.266C401.988 202.466 400.467 200.986 398.639 199.983C396.812 198.965 394.76 198.417 392.668 198.391Z" fill="#fff" stroke="#fff" stroke-width=".85" stroke-miterlimit="10"/><path d="M413.104 196.4H418.545C420.263 196.302 421.983 196.574 423.587 197.196C424.715 197.726 425.678 198.552 426.374 199.585C427.064 200.653 427.432 201.897 427.436 203.168C427.459 204.383 427.136 205.579 426.507 206.618C425.863 207.681 424.947 208.551 423.853 209.14C425.049 209.52 426.171 210.104 427.17 210.865C427.931 211.54 428.561 212.35 429.028 213.253C429.451 214.216 429.677 215.254 429.692 216.306C429.714 217.383 429.499 218.452 429.064 219.438C428.628 220.424 427.982 221.302 427.17 222.012C426.281 222.834 425.235 223.47 424.095 223.88C422.955 224.29 421.745 224.467 420.535 224.4H412.838V196.4H413.104ZM415.758 199.054V207.945H417.35C418.787 208.04 420.228 207.859 421.597 207.414C422.464 207.07 423.205 206.468 423.72 205.689C424.259 204.911 424.538 203.982 424.516 203.035C424.552 202.458 424.45 201.88 424.219 201.35C423.989 200.819 423.636 200.351 423.189 199.983C421.92 199.192 420.435 198.82 418.943 198.921H415.758V199.054ZM415.758 210.865V221.614H419.208C420.74 221.673 422.27 221.448 423.72 220.95C424.634 220.56 425.417 219.915 425.976 219.092C426.557 218.277 426.881 217.306 426.905 216.306C426.936 215.129 426.508 213.987 425.71 213.121C424.84 212.153 423.673 211.499 422.393 211.263C420.778 210.938 419.13 210.804 417.483 210.865H415.758Z" fill="#fff" stroke="#fff" stroke-width=".85" stroke-miterlimit="10"/><path d="M448.535 195.604C450.5 195.556 452.454 195.907 454.279 196.637C456.104 197.367 457.762 198.46 459.151 199.85C461.218 201.898 462.628 204.513 463.204 207.364C463.78 210.215 463.495 213.173 462.386 215.862C461.276 218.55 459.392 220.848 456.973 222.463C454.554 224.078 451.709 224.937 448.8 224.931C446.857 224.967 444.926 224.609 443.125 223.88C441.323 223.15 439.688 222.063 438.317 220.685C436.941 219.34 435.855 217.728 435.125 215.948C434.395 214.168 434.036 212.258 434.07 210.334C434.053 207.723 434.741 205.155 436.061 202.903C437.33 200.661 439.159 198.786 441.369 197.462C443.568 196.26 446.03 195.622 448.535 195.604ZM448.668 198.391C446.613 198.384 444.595 198.934 442.829 199.983C440.998 201.017 439.484 202.531 438.45 204.362C437.381 206.218 436.831 208.326 436.857 210.467C436.854 212.019 437.157 213.556 437.749 214.991C438.341 216.425 439.211 217.728 440.309 218.826C441.406 219.923 442.709 220.793 444.144 221.385C445.578 221.978 447.116 222.281 448.668 222.277C450.764 222.285 452.825 221.735 454.639 220.685C456.47 219.651 457.984 218.137 459.019 216.306C460.087 214.45 460.637 212.342 460.611 210.201C460.635 208.117 460.092 206.065 459.04 204.266C457.988 202.466 456.467 200.986 454.639 199.983C452.825 198.933 450.764 198.383 448.668 198.391Z" fill="#fff" stroke="#fff" stroke-width=".85" stroke-miterlimit="10"/><path d="M491 224.268H488.081V202.902L469.635 224.268H468.971V196.4H471.758V218.163L490.336 196.4H491V224.268ZM473.351 189.632H475.872C476.279 190.288 476.882 190.799 477.597 191.092C478.398 191.422 479.253 191.602 480.118 191.623C480.934 191.667 481.75 191.532 482.507 191.225C483.232 190.884 483.835 190.328 484.232 189.632H486.621C486.483 190.237 486.224 190.808 485.859 191.31C485.494 191.812 485.031 192.234 484.498 192.552C483.123 193.335 481.568 193.746 479.986 193.746C478.404 193.746 476.849 193.335 475.474 192.552C474.434 191.869 473.679 190.831 473.351 189.632Z" fill="#fff" stroke="#fff" stroke-width=".85" stroke-miterlimit="10"/><path d="M52.1519 248.818V246.031H67.4127V248.818H61.1757V274.031H58.3889V248.818H52.1519Z" fill="#fff" stroke="#fff" stroke-width=".85" stroke-miterlimit="10"/><path d="M71.3938 246.164H76.9673C79.1425 246.093 81.3195 246.226 83.4698 246.562C84.9864 246.898 86.3434 247.741 87.3181 248.95C88.268 250.313 88.7773 251.934 88.7773 253.595C88.7773 255.256 88.268 256.877 87.3181 258.239C86.2609 259.483 84.8087 260.327 83.2043 260.628C80.8757 260.963 78.5226 261.096 76.1711 261.026H74.1806V274.031H71.3938V246.164ZM74.3133 248.818V258.239H79.0906C80.5266 258.323 81.9658 258.143 83.337 257.709C84.2045 257.364 84.9456 256.762 85.4603 255.984C85.9992 255.205 86.2779 254.276 86.2565 253.329C86.2581 252.427 85.9799 251.546 85.4603 250.808C84.9978 250.066 84.2954 249.504 83.4698 249.216C82.1348 248.824 80.7466 248.645 79.356 248.685H74.3133V248.818Z" fill="#fff" stroke="#fff" stroke-width=".85" stroke-miterlimit="10"/><path d="M105.897 246.164L118.901 274.031H115.849L111.47 264.875H99.3941L95.0149 274.031H91.9628L105.1 246.164H105.897ZM105.498 252.002L100.721 262.088H110.276L105.498 252.002Z" fill="#fff" stroke="#fff" stroke-width=".85" stroke-miterlimit="10"/><path d="M123.148 246.164H125.935V257.841H140.134V246.164H142.921V274.031H140.134V260.495H125.935V274.031H123.148V246.164Z" fill="#fff" stroke="#fff" stroke-width=".85" stroke-miterlimit="10"/><path d="M175.831 251.339L173.575 253.064C172.44 251.52 170.934 250.288 169.196 249.481C167.448 248.68 165.546 248.272 163.623 248.287C161.442 248.279 159.296 248.827 157.386 249.879C155.59 250.902 154.084 252.363 153.006 254.126C151.938 255.981 151.388 258.089 151.414 260.23C151.376 261.807 151.663 263.374 152.257 264.835C152.85 266.296 153.738 267.62 154.864 268.723C156.046 269.855 157.44 270.743 158.966 271.335C160.492 271.927 162.119 272.212 163.755 272.173C165.634 272.177 167.491 271.763 169.19 270.959C170.888 270.156 172.386 268.984 173.575 267.529L175.831 269.254C174.452 271.012 172.68 272.421 170.656 273.368C168.442 274.347 166.044 274.845 163.623 274.827C161.451 274.947 159.281 274.567 157.279 273.715C155.277 272.864 153.498 271.565 152.078 269.918C149.698 267.155 148.422 263.611 148.495 259.965C148.46 258.041 148.819 256.131 149.549 254.351C150.279 252.571 151.365 250.959 152.741 249.614C154.164 248.232 155.846 247.145 157.691 246.417C159.536 245.688 161.507 245.331 163.49 245.367C165.928 245.328 168.34 245.874 170.523 246.96C172.623 247.966 174.445 249.469 175.831 251.339Z" fill="#fff" stroke="#fff" stroke-width=".85" stroke-miterlimit="10"/><path d="M193.48 246.164H196.267V249.747H198.39C202.637 249.747 205.556 250.543 207.149 252.268C207.924 253.027 208.535 253.937 208.946 254.941C209.357 255.945 209.558 257.022 209.538 258.107C209.579 260.17 208.817 262.168 207.414 263.68C205.955 265.273 203.3 266.069 199.187 266.069H196.135V274.031H193.348V266.069H190.561C188.77 266.088 186.984 265.864 185.253 265.405C183.781 264.976 182.51 264.035 181.67 262.751C180.696 261.351 180.185 259.68 180.21 257.974C180.19 256.889 180.391 255.812 180.802 254.808C181.212 253.804 181.824 252.894 182.599 252.135C184.191 250.543 187.111 249.614 191.357 249.614H193.48V246.164ZM193.48 252.401H190.296C188.376 252.322 186.477 252.831 184.855 253.86C184.207 254.327 183.687 254.947 183.339 255.665C182.991 256.384 182.828 257.177 182.864 257.974C182.845 258.691 182.976 259.405 183.251 260.068C183.525 260.731 183.936 261.329 184.457 261.823C185.08 262.392 185.814 262.828 186.613 263.102C187.412 263.376 188.259 263.482 189.101 263.415H193.48V252.401ZM196.267 252.401V263.415H200.646C201.467 263.471 202.291 263.359 203.067 263.085C203.843 262.811 204.554 262.381 205.158 261.823C205.679 261.329 206.09 260.731 206.364 260.068C206.639 259.405 206.77 258.691 206.751 257.974C206.762 257.194 206.602 256.421 206.281 255.71C205.96 254.999 205.486 254.367 204.893 253.86C203.332 252.689 201.399 252.123 199.452 252.268H196.267V252.401Z" fill="#fff" stroke="#fff" stroke-width=".85" stroke-miterlimit="10"/><path d="M228.514 245.367C230.479 245.319 232.433 245.67 234.258 246.4C236.083 247.13 237.741 248.224 239.13 249.614C241.197 251.661 242.608 254.276 243.184 257.127C243.76 259.978 243.475 262.936 242.365 265.625C241.255 268.314 239.371 270.612 236.952 272.227C234.533 273.842 231.688 274.701 228.78 274.695C226.836 274.731 224.905 274.373 223.104 273.643C221.302 272.913 219.667 271.827 218.296 270.448C216.92 269.103 215.834 267.491 215.104 265.711C214.374 263.931 214.015 262.021 214.05 260.097C214.032 257.486 214.72 254.919 216.04 252.666C217.256 250.427 219.06 248.563 221.259 247.277C223.458 245.99 225.967 245.33 228.514 245.367ZM228.647 248.154C226.592 248.147 224.574 248.698 222.808 249.747C220.977 250.781 219.464 252.295 218.429 254.126C217.36 255.981 216.81 258.089 216.836 260.23C216.833 261.782 217.136 263.319 217.728 264.754C218.321 266.188 219.19 267.492 220.288 268.589C221.385 269.687 222.689 270.557 224.123 271.149C225.558 271.741 227.095 272.044 228.647 272.041C230.743 272.048 232.804 271.499 234.619 270.448C236.414 269.426 237.92 267.965 238.998 266.202C240.066 264.346 240.616 262.238 240.59 260.097C240.632 257.997 240.08 255.927 238.998 254.126C237.92 252.363 236.414 250.902 234.619 249.879C232.841 248.73 230.764 248.13 228.647 248.154Z" fill="#fff" stroke="#fff" stroke-width=".85" stroke-miterlimit="10"/><path d="M249.083 246.164H254.657C256.832 246.093 259.009 246.226 261.159 246.562C262.676 246.898 264.033 247.741 265.008 248.95C265.958 250.313 266.467 251.934 266.467 253.595C266.467 255.256 265.958 256.877 265.008 258.239C263.95 259.483 262.498 260.327 260.894 260.628C258.565 260.963 256.212 261.096 253.861 261.026H251.87V274.031H249.083V246.164ZM251.87 248.818V258.239H256.647C258.083 258.323 259.523 258.143 260.894 257.709C261.761 257.364 262.502 256.762 263.017 255.984C263.556 255.205 263.835 254.276 263.813 253.329C263.815 252.427 263.537 251.546 263.017 250.808C262.555 250.066 261.852 249.504 261.027 249.216C259.692 248.824 258.303 248.645 256.913 248.685H251.87V248.818Z" fill="#fff" stroke="#fff" stroke-width=".85" stroke-miterlimit="10"/><path d="M270.846 274.031L274.827 246.164H275.226L286.638 269.121L297.918 246.164H298.316L302.297 274.031H299.51L296.723 254.126L286.903 274.031H286.24L276.287 253.86L273.5 274.031H270.846Z" fill="#fff" stroke="#fff" stroke-width=".85" stroke-miterlimit="10"/><path d="M319.15 246.164L332.155 274.031H329.103L324.724 264.875H312.648L308.268 274.031H305.216L318.354 246.164H319.15ZM318.885 252.002L314.107 262.088H323.662L318.885 252.002Z" fill="#fff" stroke="#fff" stroke-width=".85" stroke-miterlimit="10"/><path d="M357.236 274.031H336.534V246.164H339.321V271.51H352.193V246.164H354.98V271.51H359.757V278.278H357.103V274.031H357.236Z" fill="#fff" stroke="#fff" stroke-width=".85" stroke-miterlimit="10"/><path d="M386.032 274.031H383.113V252.666L364.667 274.031H364.003V246.164H366.79V267.927L385.368 246.164H386.032V274.031Z" fill="#fff" stroke="#fff" stroke-width=".85" stroke-miterlimit="10"/><path d="M414.829 274.031H411.909V252.666L393.464 274.031H392.8V246.164H395.587V267.927L414.165 246.164H414.829V274.031Z" fill="#fff" stroke="#fff" stroke-width=".85" stroke-miterlimit="10"/><path d="M52.4173 38.2185H54.0098L57.1946 43.3939L60.3795 38.2185H61.9719L57.9908 44.7209L62.2373 51.6215H60.6449L57.1946 46.048L53.7444 51.6215H52.1519L56.3984 44.7209L52.4173 38.2185Z" fill="#fff" stroke="#fff" stroke-width=".5" stroke-miterlimit="10"/><path d="M69.9346 38.2185L76.1716 51.6215H74.7119L72.5886 47.2423H66.8824L64.7592 51.6215H63.2994L69.6692 38.2185H69.9346ZM69.8019 41.0053L67.5459 45.7826H72.0578L69.8019 41.0053Z" fill="#fff" stroke="#fff" stroke-width=".5" stroke-miterlimit="10"/><path d="M78.1618 38.2185H79.4888V43.2612L84.7969 38.2185H86.5221L80.1523 44.1901L87.0529 51.4888H85.3277L79.6215 45.3845V51.6215H78.2945V38.2185H78.1618Z" fill="#fff" stroke="#fff" stroke-width=".5" stroke-miterlimit="10"/><path d="M94.6168 38.2185L100.854 51.6215H99.3941L97.2709 47.2423H91.5647L89.4414 51.6215H87.9817L94.3514 38.2185H94.6168ZM94.4841 41.0053L92.2282 45.7826H96.7401L94.4841 41.0053Z" fill="#fff" stroke="#fff" stroke-width=".5" stroke-miterlimit="10"/><path d="M101.65 39.5455V38.2185H108.949V39.5455H106.03V51.6215H104.703V39.5455H101.65Z" fill="#fff" stroke="#fff" stroke-width=".5" stroke-miterlimit="10"/><path d="M117.177 37.8203C118.109 37.7888 119.037 37.9493 119.905 38.2916C120.772 38.6339 121.56 39.1508 122.22 39.8103C122.879 40.4698 123.396 41.2577 123.739 42.1253C124.081 42.9928 124.241 43.9214 124.21 44.8535C124.233 45.7648 124.068 46.6711 123.726 47.5158C123.384 48.3606 122.871 49.1257 122.219 49.7635C121.575 50.406 120.809 50.9131 119.966 51.255C119.122 51.5969 118.219 51.7665 117.309 51.7541C115.432 51.7808 113.62 51.0655 112.267 49.7635C111.599 49.1381 111.075 48.3751 110.732 47.5273C110.388 46.6796 110.233 45.7673 110.276 44.8535C110.255 43.6208 110.563 42.4048 111.17 41.3315C111.777 40.2582 112.659 39.3666 113.726 38.7492C114.79 38.1795 115.971 37.8617 117.177 37.8203ZM117.309 39.1473C116.327 39.1623 115.365 39.437 114.523 39.9435C113.63 40.4381 112.894 41.1739 112.399 42.0668C111.875 42.95 111.6 43.959 111.603 44.9862C111.585 45.7231 111.717 46.456 111.99 47.1405C112.264 47.8249 112.674 48.4466 113.195 48.9678C113.716 49.489 114.338 49.8989 115.022 50.1726C115.707 50.4462 116.44 50.5779 117.177 50.5597C118.204 50.5632 119.213 50.2881 120.096 49.7635C120.989 49.269 121.725 48.5332 122.219 47.6403C122.741 46.7558 123.016 45.7477 123.016 44.7208C123.016 43.6939 122.741 42.6858 122.219 41.8014C121.719 40.9465 120.981 40.2551 120.096 39.8108C119.222 39.4033 118.274 39.1776 117.309 39.1473Z" fill="#fff" stroke="#fff" stroke-width=".5" stroke-miterlimit="10"/><path d="M126.997 38.2185H128.324V43.792H135.092V38.2185H136.419V51.6215H135.092V45.119H128.324V51.6215H126.997V38.2185Z" fill="#fff" stroke="#fff" stroke-width=".5" stroke-miterlimit="10"/></svg>